<?xml version="1.0" encoding="utf-8"?>
<!-- Generator: Adobe Illustrator 27.4.0, SVG Export Plug-In . SVG Version: 6.00 Build 0)  -->
<svg version="1.1" id="Layer_1" xmlns="http://www.w3.org/2000/svg" xmlns:xlink="http://www.w3.org/1999/xlink" x="0px" y="0px"
	 viewBox="0 0 283.5 283.5" style="enable-background:new 0 0 283.5 283.5;" xml:space="preserve">
<style type="text/css">
	.st0{fill:#FFFFFF;}
</style>
<g>
	<path class="st0" d="M144.2,158h-5v10h4.2c4.6,0,6.8-1.6,6.8-5.2C150.2,159.7,148,158,144.2,158z"/>
	<path class="st0" d="M147.8,146.6c0-2.7-1.8-4.8-5.6-4.8h-2.9v9.4h3.1C145.9,151.3,147.8,149.2,147.8,146.6z"/>
	<path class="st0" d="M0,0v283.5h283.5V0H0z M135.8,103.4h3.5v6.8h7.8v-6.8h3.5v16.8h-3.5v-7.1h-7.8v7.1h-3.5V103.4z M58.1,175.3
		c-4.6,0-9.2-1.3-12.4-3.6l3.1-6.2c2.5,1.7,5.5,2.9,9,2.9c3.1,0,6.1-1.1,6.1-4.1c0-7.1-16.9-6.2-16.9-18.4c0-5.9,4.7-11.3,13.3-11.3
		c4.2,0,7.7,1,10,2.1v7.4c-3.4-1.7-6.6-2.6-9.8-2.6c-2.5,0-4.7,0.9-4.7,3.7c0,6.7,16.9,5.8,16.9,18.4
		C72.7,170.8,66.4,175.3,58.1,175.3z M110.7,151.2v6.6H98.1V168h14.6v6.7H89.9v-39.6h22.9l-2.1,6.7H98.1v9.4H110.7z M128.7,106.3
		h-4.4v14h-3.5v-14h-4.9v-2.8h13.7L128.7,106.3z M144.5,174.7H131v-39.6h12.4c8.6,0,12.4,5,12.4,10c0,3.2-1.6,6.4-4.7,8v0.1
		c4.7,1.3,7.4,5.1,7.4,9.5C158.5,168.8,153.8,174.7,144.5,174.7z M166.7,110.3v2.8h-5.3v4.4h6.2v2.8h-9.7v-16.8h9.7l-0.9,2.8h-5.3v4
		L166.7,110.3L166.7,110.3z M195.4,151.2v6.6h-12.5V168h14.6v6.7h-22.8v-39.6h22.9l-2.1,6.7H183v9.4H195.4z M237.8,174.7h-22v-39.6
		h8.2V168h13.8V174.7z"/>
</g>
</svg>
