<svg width="95" height="89" viewBox="0 0 95 89" fill="none" xmlns="http://www.w3.org/2000/svg">
<g clip-path="url(#clip0_210_1118)">
<g opacity="0.2">
<path d="M6.59998 43.29C6.59998 42.05 6.59998 41.43 6.59998 40.18C6.59998 39.63 6.44998 39.22 6.08998 38.93C5.91998 38.79 5.60998 38.72 5.27998 38.72C4.57998 38.73 4.25998 39.15 4.09998 39.5C3.99998 39.72 3.94998 39.98 3.94998 40.26C3.94998 45.21 3.94998 47.68 3.93998 52.63C3.93998 53.22 4.12998 53.61 4.48998 53.85C4.66998 53.97 4.92998 54.02 5.25998 53.98C5.95998 53.89 6.26998 53.48 6.42998 53.09C6.51998 52.89 6.57998 52.63 6.57998 52.33C6.57998 50.87 6.57998 50.14 6.57998 48.67C5.94998 48.72 5.62998 48.75 4.99998 48.81C4.99998 47.8 4.99998 47.29 4.99998 46.28C7.20998 46.12 8.31998 46.05 10.53 45.92C10.53 49.85 10.52 51.81 10.51 55.74C9.56998 55.85 9.10998 55.91 8.16998 56.03C7.97998 55.67 7.87998 55.49 7.69998 55.13C6.96998 55.9 5.90998 56.54 4.62998 56.72C3.34998 56.9 2.46998 56.77 1.81998 56.43C1.17998 56.09 0.71998 55.62 0.42998 55.09C0.0999799 54.48 -0.0400201 53.72 -0.0100201 52.85V40.39C0.0299799 39.55 0.25998 38.77 0.64998 38.11C0.97998 37.54 1.45998 36.96 2.18998 36.53C2.91998 36.1 3.94998 35.82 5.26998 35.82C6.58998 35.82 7.57998 36.09 8.31998 36.5C9.04998 36.9 9.55998 37.45 9.88998 37.98C10.28 38.59 10.51 39.31 10.55 40.09C10.55 41.3 10.55 41.91 10.55 43.12C8.96998 43.19 8.17998 43.23 6.58998 43.31L6.59998 43.29Z" fill="white"/>
<path d="M25.6499 54.3C24.8399 51.27 24.4299 49.75 23.6099 46.67C23.1799 46.69 22.9699 46.7 22.5399 46.72C22.5399 49.84 22.5299 51.41 22.5199 54.53C20.9299 54.66 20.1399 54.73 18.5599 54.87C18.5799 47.32 18.5899 43.55 18.6099 36.01C20.1999 36.01 20.9899 36.01 22.5699 36.01C27.2999 36.01 29.3199 37.8 29.3099 41.21C29.3099 43 28.5999 44.64 27.0899 45.38C28.0999 48.87 28.5999 50.6 29.6099 54.04C28.0199 54.13 27.2299 54.18 25.6399 54.29L25.6499 54.3ZM22.5499 44.2C23.0999 44.18 23.8399 44.1 24.4299 43.73C25.0199 43.36 25.4999 42.68 25.4999 41.38C25.4999 40.08 25.0299 39.4 24.4399 39.05C23.8499 38.71 23.1199 38.69 22.5699 38.7C22.5699 40.9 22.5599 42 22.5499 44.19V44.2Z" fill="white"/>
<path d="M35.87 53.75C37.52 46.59 38.34 43.05 39.97 35.99C41.91 35.99 42.88 35.99 44.82 35.99C46.45 43.02 47.26 46.52 48.9 53.56C47.35 53.55 46.58 53.55 45.04 53.56C44.75 52.13 44.6 51.41 44.3 49.98C42.77 49.98 42 50 40.48 50.03C40.18 51.47 40.03 52.2 39.74 53.64C38.19 53.68 37.42 53.7 35.88 53.75H35.87ZM42.61 41.72C42.57 41.54 42.54 41.45 42.5 41.26C42.41 41.26 42.37 41.26 42.28 41.26C42.24 41.44 42.22 41.53 42.17 41.72C41.71 43.94 41.48 45.06 41.03 47.28C42.12 47.27 42.66 47.26 43.75 47.26C43.3 45.04 43.07 43.94 42.62 41.72H42.61Z" fill="white"/>
<path d="M54.79 50.88C57.27 46.01 58.5 43.57 60.97 38.61C58.84 38.59 57.78 38.59 55.65 38.58C55.65 37.55 55.65 37.04 55.65 36C59.5 36 61.42 36 65.27 36C65.27 37.06 65.27 37.58 65.27 38.64C62.76 43.76 61.5 46.25 58.98 51.22C61.51 51.31 62.78 51.36 65.3 51.5C65.3 52.56 65.3 53.08 65.3 54.14C61.09 53.88 58.99 53.79 54.78 53.67C54.78 52.55 54.78 52 54.78 50.88H54.79Z" fill="white"/>
<path d="M72.24 36.01C73.83 36.01 74.62 36.01 76.2 36.01C76.22 43.61 76.24 47.41 76.26 55.01C74.67 54.85 73.88 54.78 72.3 54.64C72.28 47.18 72.27 43.45 72.24 36V36.01Z" fill="white"/>
<path d="M84.28 36.02C87.91 36.02 89.72 36.02 93.34 36.03V39.23C91.3 39.18 90.28 39.15 88.24 39.11C88.24 41.25 88.24 42.33 88.24 44.47C89.71 44.56 90.44 44.6 91.9 44.69C91.9 46.03 91.9 46.71 91.9 48.05C90.44 47.92 89.71 47.86 88.24 47.74C88.24 49.98 88.24 51.11 88.24 53.35C90.27 53.59 91.29 53.72 93.32 53.99V57.18C89.72 56.61 87.91 56.36 84.29 55.9C84.27 47.94 84.27 43.96 84.25 36.01L84.28 36.02Z" fill="white"/>
</g>
<path d="M35.81 79.46L36.48 77.39L36.62 77.44L36 79.36L37.16 79.74L37.12 79.88L35.82 79.46H35.81Z" fill="white"/>
<path d="M38.89 80.39C38.7 80.34 38.53 80.25 38.39 80.11C38.25 79.97 38.15 79.81 38.1 79.62C38.05 79.43 38.04 79.24 38.1 79.04C38.15 78.85 38.24 78.68 38.38 78.54C38.51 78.4 38.68 78.3 38.86 78.24C39.05 78.19 39.24 78.18 39.43 78.23C39.62 78.28 39.79 78.37 39.93 78.51C40.07 78.65 40.17 78.81 40.22 79C40.27 79.19 40.28 79.38 40.22 79.58C40.17 79.77 40.08 79.94 39.94 80.08C39.8 80.22 39.64 80.32 39.45 80.38C39.26 80.44 39.07 80.44 38.88 80.39H38.89ZM39.39 78.39C39.22 78.35 39.06 78.35 38.9 78.39C38.74 78.44 38.6 78.52 38.48 78.64C38.36 78.76 38.28 78.91 38.24 79.07C38.2 79.24 38.2 79.4 38.24 79.57C38.29 79.73 38.37 79.87 38.49 79.99C38.61 80.11 38.75 80.19 38.92 80.23C39.09 80.27 39.25 80.27 39.41 80.22C39.57 80.17 39.71 80.09 39.83 79.97C39.95 79.85 40.03 79.7 40.07 79.54C40.11 79.37 40.11 79.21 40.07 79.04C40.03 78.87 39.94 78.74 39.82 78.62C39.7 78.5 39.56 78.42 39.39 78.38V78.39Z" fill="white"/>
<path d="M42.65 80.66L43.45 79.03L43.61 79.06L42.59 81.13L42.23 79.43L41.36 80.93L41.03 78.64L41.18 78.67L41.44 80.48L42.29 79.02L42.64 80.67L42.65 80.66Z" fill="white"/>
<path d="M44.29 81.3L44.46 79.13L45.86 79.24V79.39L44.59 79.29L44.53 80.14L45.5 80.22V80.37L44.51 80.3L44.44 81.15L45.69 81.25V81.41L44.28 81.3H44.29Z" fill="white"/>
<path d="M48.04 81.46L47.15 80.36H47.42C47.58 80.36 47.72 80.35 47.82 80.3C47.9 80.26 47.96 80.21 48.02 80.14C48.08 80.07 48.11 79.99 48.11 79.9C48.11 79.82 48.09 79.75 48.04 79.68C48 79.61 47.93 79.55 47.84 79.51C47.75 79.46 47.65 79.44 47.54 79.44H46.93L46.91 81.45H46.76L46.78 79.28H47.54C47.64 79.28 47.74 79.31 47.83 79.34C47.92 79.37 48 79.42 48.06 79.48C48.12 79.54 48.17 79.6 48.21 79.68C48.24 79.75 48.26 79.83 48.26 79.91C48.26 80.03 48.22 80.14 48.15 80.24C48.08 80.34 47.99 80.4 47.89 80.45C47.82 80.48 47.76 80.5 47.69 80.51C47.62 80.51 47.56 80.51 47.48 80.51L48.26 81.47H48.06L48.04 81.46Z" fill="white"/>
<path d="M52.23 80.19L50.95 80.32L51.05 81.32L50.9 81.34L50.78 80.18L50.67 79.18L50.82 79.16L50.92 80.16L52.2 80.03L52.1 79.03L52.25 79.01L52.36 80.09L52.47 81.17L52.32 81.19L52.21 80.19H52.23Z" fill="white"/>
<path d="M54.43 80.9C54.32 80.92 54.22 80.92 54.11 80.9C54 80.88 53.9 80.83 53.81 80.77C53.72 80.71 53.65 80.63 53.59 80.54C53.53 80.45 53.49 80.34 53.47 80.23L53.23 78.9L53.38 78.87L53.62 80.2C53.64 80.29 53.67 80.38 53.72 80.45C53.77 80.53 53.83 80.59 53.9 80.64C53.98 80.69 54.06 80.73 54.14 80.75C54.23 80.77 54.31 80.77 54.4 80.75C54.49 80.73 54.57 80.7 54.65 80.65C54.73 80.6 54.79 80.54 54.84 80.46C54.89 80.39 54.93 80.31 54.95 80.22C54.97 80.13 54.97 80.04 54.95 79.95L54.71 78.62L54.86 78.59L55.1 79.92C55.12 80.03 55.12 80.14 55.1 80.25C55.08 80.36 55.03 80.46 54.97 80.54C54.91 80.63 54.83 80.71 54.74 80.77C54.65 80.83 54.55 80.87 54.44 80.89L54.43 80.9Z" fill="white"/>
<path d="M57.49 77.95L57.53 78.1L56.7 78.31L57.2 80.27L57.05 80.31L56.55 78.36L55.71 78.57L55.67 78.42L57.48 77.95H57.49Z" fill="white"/>
<path d="M60.02 77.12L60.07 77.26L59.26 77.54L59.91 79.45L59.76 79.5L59.11 77.59L58.29 77.87L58.24 77.72L60.01 77.12H60.02Z" fill="white"/>
<path d="M42.32 18.2H35.13V22.36H42.32V18.2Z" fill="#019247"/>
<path d="M59.91 18.2H52.72V22.36H59.91V18.2Z" fill="#CE2A37"/>
<path d="M8.09998 41.19C8.09998 39.95 8.09998 39.33 8.09998 38.08C8.09998 37.53 7.94998 37.12 7.58998 36.83C7.41998 36.69 7.10998 36.62 6.77998 36.62C6.07998 36.63 5.75998 37.05 5.59998 37.4C5.49998 37.62 5.44998 37.88 5.44998 38.16C5.44998 43.11 5.44998 45.58 5.43998 50.53C5.43998 51.12 5.61998 51.5 5.98998 51.75C6.15998 51.87 6.42998 51.92 6.75998 51.88C7.45998 51.8 7.75998 51.38 7.92998 51C8.01998 50.8 8.07998 50.54 8.07998 50.24C8.07998 48.78 8.07998 48.05 8.07998 46.58C7.44998 46.63 7.12998 46.66 6.49998 46.72C6.49998 45.71 6.49998 45.2 6.49998 44.19C8.70998 44.03 9.81998 43.96 12.03 43.83L12.01 53.65C11.07 53.76 10.6 53.82 9.66998 53.94C9.47998 53.58 9.38998 53.4 9.19998 53.05C8.46998 53.82 7.40998 54.46 6.12998 54.64C4.84998 54.82 3.96998 54.69 3.31998 54.34C2.67998 54 2.21998 53.53 1.92998 53C1.59998 52.39 1.45998 51.63 1.48998 50.76C1.48998 45.78 1.48998 43.28 1.48998 38.3C1.52998 37.46 1.75998 36.68 2.14998 36.02C2.47998 35.45 2.95998 34.86 3.68998 34.44C4.41998 34.01 5.44998 33.73 6.76998 33.73C8.08998 33.73 9.07998 34 9.81998 34.41C10.55 34.81 11.06 35.36 11.39 35.89C11.78 36.5 12.01 37.22 12.05 38C12.05 39.21 12.05 39.82 12.05 41.03C10.47 41.1 9.67998 41.14 8.08998 41.21L8.09998 41.19Z" fill="white"/>
<path d="M27.15 52.2C26.33 49.17 25.93 47.65 25.11 44.57C24.68 44.59 24.47 44.6 24.05 44.62C24.05 47.74 24.04 49.31 24.03 52.43C22.44 52.56 21.65 52.63 20.07 52.77C20.09 45.22 20.1 41.45 20.12 33.91C21.71 33.91 22.5 33.91 24.09 33.91C28.83 33.91 30.84 35.7 30.83 39.11C30.83 40.9 30.12 42.54 28.62 43.28C29.62 46.77 30.13 48.5 31.13 51.94C29.54 52.03 28.75 52.08 27.16 52.19L27.15 52.2ZM24.05 42.1C24.6 42.08 25.34 42 25.93 41.63C26.52 41.26 27 40.58 27 39.28C27 37.98 26.53 37.29 25.94 36.95C25.35 36.61 24.62 36.59 24.07 36.6L24.05 42.09V42.1Z" fill="white"/>
<path d="M37.37 51.65C39.01 44.49 39.84 40.95 41.48 33.9C43.42 33.9 44.39 33.9 46.32 33.9C47.95 40.93 48.76 44.43 50.4 51.47C48.85 51.46 48.08 51.46 46.54 51.47C46.25 50.04 46.1 49.32 45.81 47.89C44.28 47.89 43.51 47.91 41.98 47.93C41.68 49.37 41.53 50.1 41.24 51.54C39.69 51.58 38.92 51.6 37.38 51.65H37.37ZM44.11 39.61C44.06 39.43 44.04 39.34 44 39.16C43.91 39.16 43.87 39.16 43.78 39.16C43.74 39.34 43.71 39.43 43.67 39.61C43.21 41.83 42.98 42.95 42.52 45.18C43.61 45.17 44.15 45.16 45.24 45.16C44.78 42.94 44.56 41.83 44.1 39.62L44.11 39.61Z" fill="white"/>
<path d="M56.29 48.78C58.77 43.91 60.01 41.47 62.48 36.51C60.35 36.49 59.29 36.49 57.16 36.48C57.16 35.45 57.16 34.93 57.16 33.9C61 33.9 62.93 33.9 66.77 33.9C66.77 34.96 66.77 35.48 66.77 36.54C64.26 41.66 63 44.15 60.48 49.12C63.01 49.21 64.27 49.26 66.8 49.4C66.8 50.46 66.8 50.98 66.8 52.04C62.59 51.78 60.49 51.69 56.28 51.57C56.28 50.45 56.28 49.9 56.28 48.78H56.29Z" fill="white"/>
<path d="M73.74 33.91C75.33 33.91 76.12 33.91 77.7 33.91C77.72 41.51 77.73 45.31 77.75 52.91C76.16 52.75 75.37 52.68 73.79 52.54C73.77 45.08 73.76 41.36 73.73 33.9L73.74 33.91Z" fill="white"/>
<path d="M85.78 33.92C89.41 33.92 91.22 33.92 94.85 33.93V37.13C92.81 37.08 91.79 37.06 89.75 37.01C89.75 39.15 89.75 40.23 89.75 42.37C91.21 42.46 91.95 42.5 93.41 42.59C93.41 43.93 93.41 44.61 93.41 45.95C91.95 45.82 91.21 45.76 89.75 45.64C89.75 47.88 89.75 49.01 89.75 51.25C91.79 51.49 92.8 51.62 94.83 51.89V55.09C91.22 54.53 89.42 54.27 85.8 53.81C85.78 45.85 85.78 41.87 85.76 33.91L85.78 33.92Z" fill="white"/>
<path d="M23.16 66.2L22.08 64.89H22.4C22.6 64.89 22.76 64.86 22.88 64.81C22.97 64.77 23.05 64.7 23.12 64.62C23.19 64.53 23.22 64.44 23.22 64.33C23.22 64.24 23.19 64.15 23.14 64.06C23.08 63.98 23 63.91 22.9 63.85C22.8 63.8 22.68 63.77 22.54 63.77H21.81V66.19H21.63V63.59H22.54C22.66 63.59 22.78 63.61 22.88 63.65C22.99 63.69 23.08 63.74 23.16 63.82C23.24 63.89 23.3 63.97 23.34 64.06C23.38 64.15 23.4 64.24 23.4 64.33C23.4 64.48 23.36 64.61 23.27 64.72C23.18 64.84 23.08 64.92 22.96 64.97C22.88 65.01 22.8 65.03 22.72 65.04C22.64 65.04 22.56 65.05 22.47 65.05L23.41 66.19H23.17L23.16 66.2Z" fill="white"/>
<path d="M24.62 66.2V63.6H24.8V66.2H24.62Z" fill="white"/>
<path d="M27.75 65.2C27.82 65.3 27.85 65.41 27.85 65.52C27.85 65.62 27.82 65.71 27.78 65.8C27.73 65.89 27.66 65.97 27.57 66.03C27.38 66.16 27.17 66.23 26.92 66.23C26.8 66.23 26.68 66.21 26.57 66.18C26.46 66.15 26.36 66.1 26.27 66.03C26.12 65.92 26.03 65.78 25.99 65.62L26.16 65.52C26.16 65.67 26.24 65.79 26.38 65.88C26.45 65.93 26.53 65.97 26.62 66C26.71 66.03 26.81 66.04 26.92 66.04C27.13 66.04 27.31 65.99 27.46 65.88C27.6 65.78 27.67 65.65 27.67 65.51C27.67 65.43 27.64 65.35 27.59 65.28C27.54 65.21 27.47 65.15 27.37 65.1C27.28 65.05 27.12 65.02 26.9 64.99C26.88 64.99 26.81 64.98 26.7 64.96C26.58 64.94 26.49 64.91 26.4 64.87C26.27 64.81 26.17 64.72 26.09 64.62C26.01 64.51 25.98 64.4 25.98 64.28C25.98 64.18 26.01 64.09 26.05 64C26.1 63.91 26.17 63.84 26.26 63.77C26.35 63.71 26.45 63.66 26.56 63.62C26.67 63.59 26.79 63.57 26.91 63.57C27.16 63.57 27.37 63.64 27.56 63.77C27.72 63.89 27.81 64.02 27.83 64.18L27.66 64.28C27.66 64.21 27.64 64.15 27.6 64.09C27.56 64.03 27.51 63.97 27.45 63.92C27.38 63.87 27.3 63.83 27.2 63.8C27.11 63.77 27.01 63.76 26.91 63.76C26.81 63.76 26.71 63.77 26.62 63.8C26.53 63.83 26.44 63.87 26.37 63.92C26.3 63.97 26.25 64.03 26.21 64.09C26.17 64.15 26.15 64.22 26.15 64.28C26.15 64.36 26.18 64.44 26.24 64.53C26.3 64.61 26.38 64.68 26.47 64.72C26.53 64.75 26.59 64.77 26.66 64.78C26.73 64.79 26.81 64.8 26.92 64.82C26.94 64.82 26.98 64.82 27.06 64.84C27.14 64.85 27.21 64.87 27.28 64.88C27.35 64.9 27.41 64.92 27.46 64.95C27.58 65.02 27.68 65.1 27.75 65.2Z" fill="white"/>
<path d="M30.98 63.6V63.78H29.95V66.2H29.77V63.78H28.74V63.6H30.98Z" fill="white"/>
<path d="M33.07 66.23C32.83 66.23 32.61 66.17 32.41 66.05C32.21 65.93 32.05 65.77 31.93 65.57C31.81 65.37 31.75 65.14 31.75 64.9C31.75 64.66 31.81 64.44 31.93 64.23C32.05 64.03 32.21 63.86 32.41 63.75C32.61 63.63 32.83 63.57 33.07 63.57C33.31 63.57 33.53 63.63 33.73 63.75C33.93 63.87 34.09 64.03 34.21 64.23C34.33 64.43 34.39 64.66 34.39 64.9C34.39 65.14 34.33 65.36 34.21 65.57C34.09 65.77 33.93 65.94 33.73 66.05C33.53 66.17 33.31 66.23 33.07 66.23ZM33.07 63.76C32.86 63.76 32.68 63.81 32.5 63.91C32.33 64.01 32.19 64.15 32.09 64.33C31.99 64.5 31.94 64.7 31.94 64.9C31.94 65.1 31.99 65.3 32.09 65.47C32.19 65.64 32.33 65.78 32.5 65.89C32.67 65.99 32.86 66.04 33.07 66.04C33.28 66.04 33.46 65.99 33.64 65.89C33.81 65.79 33.95 65.65 34.05 65.47C34.15 65.3 34.2 65.1 34.2 64.9C34.2 64.7 34.15 64.5 34.05 64.33C33.95 64.16 33.81 64.02 33.64 63.91C33.47 63.81 33.28 63.76 33.07 63.76Z" fill="white"/>
<path d="M36.98 66.2L35.9 64.89H36.22C36.42 64.89 36.58 64.86 36.7 64.81C36.79 64.77 36.87 64.7 36.94 64.62C37.01 64.53 37.04 64.44 37.04 64.33C37.04 64.24 37.01 64.15 36.96 64.06C36.9 63.98 36.82 63.91 36.72 63.85C36.62 63.8 36.5 63.77 36.36 63.77H35.63V66.19H35.45V63.59H36.36C36.48 63.59 36.6 63.61 36.7 63.65C36.81 63.69 36.9 63.74 36.98 63.82C37.06 63.89 37.12 63.97 37.16 64.06C37.2 64.15 37.22 64.24 37.22 64.33C37.22 64.48 37.18 64.61 37.09 64.72C37 64.84 36.9 64.92 36.78 64.97C36.7 65.01 36.62 65.03 36.54 65.04C36.46 65.04 36.38 65.05 36.29 65.05L37.23 66.19H36.99L36.98 66.2Z" fill="white"/>
<path d="M38.7 65.54L38.39 66.2H38.19L39.41 63.57L40.57 66.2H40.37L40.08 65.54H38.7ZM39.41 64.01L38.79 65.36H40.01L39.41 64.01Z" fill="white"/>
<path d="M41.8 64.09V66.2H41.62V63.57L43.42 65.72V63.6H43.6V66.24L41.8 64.08V64.09Z" fill="white"/>
<path d="M46.89 63.6V63.78H45.86V66.2H45.68V63.78H44.65V63.6H46.89Z" fill="white"/>
<path d="M47.95 66.2V63.6H49.63V63.78H48.13V64.8H49.3V64.98H48.13V66H49.63V66.19H47.95V66.2Z" fill="white"/>
<path d="M52.69 66.2V63.6H52.87V66.2H52.69Z" fill="white"/>
<path d="M56.2 63.6V63.78H55.17V66.2H54.98V63.78H53.95V63.6H56.19H56.2Z" fill="white"/>
<path d="M57.25 65.54L56.94 66.2H56.74L57.96 63.57L59.12 66.2H58.92L58.63 65.54H57.25ZM57.96 64.01L57.34 65.36H58.56L57.96 64.01Z" fill="white"/>
<path d="M60.16 66.2V63.6H60.34V66.02H61.8V66.2H60.16Z" fill="white"/>
<path d="M63.02 66.2V63.6H63.2V66.2H63.02Z" fill="white"/>
<path d="M64.8 65.54L64.49 66.2H64.29L65.51 63.57L66.67 66.2H66.47L66.18 65.54H64.8ZM65.51 64.01L64.89 65.36H66.11L65.51 64.01Z" fill="white"/>
<path d="M67.9 64.09V66.2H67.72V63.57L69.52 65.72V63.6H69.7V66.24L67.9 64.08V64.09Z" fill="white"/>
<path d="M72.1 66.23C71.86 66.23 71.64 66.17 71.44 66.05C71.24 65.93 71.08 65.77 70.96 65.57C70.84 65.37 70.78 65.14 70.78 64.9C70.78 64.66 70.84 64.44 70.96 64.23C71.08 64.03 71.24 63.86 71.44 63.75C71.64 63.63 71.86 63.57 72.1 63.57C72.34 63.57 72.56 63.63 72.76 63.75C72.96 63.87 73.12 64.03 73.24 64.23C73.36 64.43 73.42 64.66 73.42 64.9C73.42 65.14 73.36 65.36 73.24 65.57C73.12 65.77 72.96 65.94 72.76 66.05C72.56 66.17 72.34 66.23 72.1 66.23ZM72.1 63.76C71.9 63.76 71.71 63.81 71.53 63.91C71.36 64.01 71.22 64.15 71.12 64.33C71.02 64.5 70.97 64.7 70.97 64.9C70.97 65.1 71.02 65.3 71.12 65.47C71.22 65.64 71.36 65.78 71.53 65.89C71.7 65.99 71.89 66.04 72.1 66.04C72.31 66.04 72.49 65.99 72.67 65.89C72.84 65.79 72.98 65.65 73.08 65.47C73.18 65.3 73.23 65.1 73.23 64.9C73.23 64.7 73.18 64.5 73.08 64.33C72.98 64.16 72.84 64.02 72.67 63.91C72.5 63.8 72.31 63.76 72.1 63.76Z" fill="white"/>
<path d="M47.52 86.03C31.98 86.03 17.84 77.47 10.64 63.68L11.08 63.45C18.2 77.07 32.16 85.53 47.52 85.53C62.88 85.53 77.9 76.3 84.67 62.02L85.12 62.23C78.27 76.69 63.51 86.03 47.51 86.03H47.52Z" fill="white"/>
<path d="M10.3 27L9.84998 26.79C16.67 12.24 31.46 2.84 47.52 2.84C63.58 2.84 77.65 11.66 84.75 25.86L84.3 26.08C77.29 12.06 63.2 3.34 47.52 3.34C31.84 3.34 17.04 12.63 10.3 27Z" fill="white"/>
<path d="M47.52 88.88C30.92 88.88 15.82 79.73 8.12 65.01L9.01 64.55C16.54 78.94 31.3 87.88 47.52 87.88C64.68 87.88 80.27 77.74 87.24 62.06L88.15 62.47C81.02 78.52 65.07 88.89 47.52 88.89V88.88Z" fill="white"/>
<path d="M7.88998 26.64L6.97998 26.23C14.14 10.29 30.06 0 47.52 0C55.3 0 62.96 2.04 69.66 5.9C77.31 10.3 83.43 16.8 87.35 24.7L86.45 25.14C82.62 17.42 76.64 11.07 69.16 6.76C62.61 2.99 55.12 0.99 47.52 0.99C30.45 1 14.89 11.06 7.88998 26.64Z" fill="white"/>
</g>
<defs>
<clipPath id="clip0_210_1118">
<rect width="94.85" height="88.88" fill="white"/>
</clipPath>
</defs>
</svg>
