<svg width="170" height="42" viewBox="0 0 170 42" fill="none" xmlns="http://www.w3.org/2000/svg">
<g opacity="0.2">
<path d="M11.8525 17.1224C11.8525 14.9015 11.8525 13.791 11.8525 11.5522C11.8525 10.5671 11.5837 9.83278 10.9385 9.31337C10.6339 9.06262 10.0784 8.93725 9.48698 8.93725C8.23256 8.95516 7.6591 9.7074 7.37238 10.3343C7.19317 10.7283 7.10357 11.194 7.10357 11.6955C7.10357 20.5612 7.10357 24.9852 7.08565 33.8509C7.08565 34.9077 7.42614 35.6062 8.07127 36.036C8.39384 36.2509 8.85977 36.3405 9.45114 36.2689C10.7056 36.1077 11.2611 35.3733 11.5478 34.6748C11.7091 34.3166 11.8166 33.8509 11.8166 33.3136C11.8166 30.6987 11.8166 29.3912 11.8166 26.7583C10.6876 26.8479 10.1142 26.9016 8.98521 27.0091C8.98521 25.2001 8.98521 24.2866 8.98521 22.4777C12.9456 22.1911 14.9348 22.0657 18.8952 21.8329C18.8952 28.8718 18.8773 32.3823 18.8594 39.4211C17.1748 39.6182 16.3505 39.7256 14.666 39.9405C14.3255 39.2958 14.1463 38.9734 13.8237 38.3286C12.5155 39.7077 10.616 40.854 8.32216 41.1764C6.02835 41.4988 4.45135 41.2659 3.28652 40.657C2.13962 40.048 1.31528 39.2062 0.795589 38.2569C0.204215 37.1644 -0.0466702 35.8032 0.00709102 34.245V11.9283C0.0787726 10.4238 0.490942 9.0268 1.18984 7.8447C1.78121 6.82379 2.64139 5.78497 3.94958 5.01482C5.25777 4.24466 7.10357 3.74316 9.46906 3.74316C11.8346 3.74316 13.6087 4.22675 14.9348 4.96109C16.243 5.67751 17.1569 6.6626 17.7483 7.61186C18.4472 8.70441 18.8594 9.99397 18.931 11.391C18.931 13.5582 18.931 14.6507 18.931 16.8179C16.0996 16.9433 14.6839 17.0149 11.8346 17.1582L11.8525 17.1224Z" fill="white"/>
<path d="M45.9908 36.8415C44.5392 31.4146 43.8045 28.6922 42.335 23.1757C41.5644 23.2116 41.1881 23.2295 40.4175 23.2653C40.4175 28.8534 40.3996 31.6654 40.3817 37.2535C37.5324 37.4863 36.1166 37.6117 33.2852 37.8624C33.3211 24.3399 33.339 17.5876 33.3748 4.08301C36.2242 4.08301 37.6399 4.08301 40.4713 4.08301C48.9476 4.08301 52.5676 7.28901 52.5496 13.3965C52.5496 16.6025 51.2773 19.5399 48.5713 20.8653C50.3813 27.1161 51.2773 30.2146 53.0873 36.3759C50.2379 36.5371 48.8222 36.6266 45.9729 36.8236L45.9908 36.8415ZM40.4355 18.7518C41.4211 18.716 42.7472 18.5727 43.8045 17.91C44.8618 17.2473 45.722 16.0294 45.722 13.701C45.722 11.3726 44.8797 10.1547 43.8224 9.52784C42.7651 8.91888 41.4569 8.88306 40.4713 8.90097C40.4713 12.8413 40.4534 14.8115 40.4355 18.7339V18.7518Z" fill="white"/>
<path d="M64.3055 35.8571C67.2624 23.0331 68.7319 16.6928 71.6529 4.04785C75.1295 4.04785 76.8677 4.04785 80.3443 4.04785C83.2653 16.639 84.7169 22.9077 87.6558 35.5168C84.8782 35.4989 83.4983 35.4989 80.7386 35.5168C80.2189 32.9556 79.9501 31.666 79.4124 29.1048C76.6706 29.1048 75.2907 29.1406 72.5668 29.1944C72.0292 31.7735 71.7604 33.081 71.2407 35.6601C68.4631 35.7317 67.0832 35.7676 64.3235 35.8571H64.3055ZM76.3839 14.3106C76.3122 13.9882 76.2585 13.827 76.1868 13.4867C76.0255 13.4867 75.9538 13.4867 75.7925 13.4867C75.7208 13.8091 75.685 13.9703 75.5954 14.3106C74.7711 18.2868 74.3589 20.2928 73.5525 24.2689C75.5058 24.251 76.4735 24.2331 78.4268 24.2331C77.6204 20.257 77.2082 18.2868 76.4018 14.3106H76.3839Z" fill="white"/>
<path d="M98.2109 30.7164C102.655 21.994 104.859 17.6238 109.286 8.7401C105.469 8.70428 103.569 8.70429 99.752 8.68637C99.752 6.84158 99.752 5.92813 99.752 4.06543C106.651 4.06543 110.092 4.06543 116.991 4.06543C116.991 5.96396 116.991 6.89531 116.991 8.79383C112.493 17.9641 110.235 22.4238 105.72 31.3254C110.253 31.4866 112.529 31.5762 117.045 31.8269C117.045 33.7254 117.045 34.6568 117.045 36.5553C109.501 36.0896 105.737 35.9284 98.1929 35.7135C98.1929 33.7075 98.1929 32.7224 98.1929 30.7164H98.2109Z" fill="white"/>
<path d="M129.482 4.08334C132.331 4.08334 133.747 4.08334 136.578 4.08334C136.614 17.6954 136.65 24.5014 136.686 38.1135C133.837 37.827 132.421 37.7016 129.59 37.4508C129.554 24.0895 129.536 17.4088 129.482 4.06543V4.08334Z" fill="white"/>
<path d="M151.058 4.10092C157.563 4.10092 160.807 4.10092 167.294 4.11883V9.85023C163.638 9.76068 161.81 9.70695 158.155 9.63531C158.155 13.4682 158.155 15.4025 158.155 19.2354C160.789 19.3966 162.097 19.4682 164.714 19.6294C164.714 22.0295 164.714 23.2474 164.714 25.6474C162.097 25.4146 160.789 25.3071 158.155 25.0922C158.155 29.1042 158.155 31.1281 158.155 35.14C161.793 35.5699 163.62 35.8027 167.258 36.2863V41.9998C160.807 40.9789 157.563 40.5311 151.076 39.7072C151.04 25.4504 151.04 18.322 151.004 4.08301L151.058 4.10092Z" fill="white"/>
</g>
<path d="M14.5405 13.3613C14.5405 11.1404 14.5405 10.03 14.5405 7.79113C14.5405 6.80604 14.2717 6.07171 13.6266 5.5523C13.3219 5.30155 12.7664 5.17617 12.175 5.17617C10.9206 5.19408 10.3472 5.94633 10.0604 6.5732C9.88122 6.96724 9.79162 7.43291 9.79162 7.93441C9.79162 16.8002 9.79162 21.2241 9.7737 30.0898C9.7737 31.1466 10.0963 31.8272 10.7593 32.2749C11.064 32.4899 11.5478 32.5794 12.1392 32.5078C13.3936 32.3645 13.9312 31.6123 14.2359 30.9317C14.3972 30.5734 14.5047 30.1078 14.5047 29.5704C14.5047 26.9555 14.5047 25.648 14.5047 23.0152C13.3757 23.1047 12.8022 23.1584 11.6733 23.2659C11.6733 21.4569 11.6733 20.5435 11.6733 18.7345C15.6337 18.4479 17.6228 18.3226 21.5832 18.0897L21.5474 35.678C19.8629 35.875 19.0206 35.9824 17.354 36.1974C17.0135 35.5526 16.8523 35.2302 16.5118 34.6033C15.2036 35.9824 13.304 37.1287 11.0102 37.4511C8.71639 37.7735 7.1394 37.5407 5.97457 36.9138C4.82767 36.3048 4.00333 35.463 3.48364 34.5138C2.89226 33.4212 2.64138 32.06 2.69514 30.5018C2.69514 21.5823 2.69514 17.1046 2.69514 8.18515C2.76682 6.68066 3.17899 5.28364 3.87789 4.10153C4.46926 3.08063 5.32944 2.0239 6.63763 1.27165C7.94582 0.501496 9.79162 0 12.1571 0C14.5226 0 16.2967 0.483587 17.6228 1.21792C18.931 1.93435 19.845 2.91943 20.4363 3.86869C21.1352 4.96124 21.5474 6.25081 21.6191 7.64784C21.6191 9.81502 21.6191 10.9076 21.6191 13.0748C18.7877 13.2001 17.3719 13.2718 14.5226 13.3971L14.5405 13.3613Z" fill="white"/>
<path d="M48.6789 33.0813C47.2094 27.6544 46.4926 24.9319 45.0232 19.4155C44.2526 19.4513 43.8762 19.4692 43.1236 19.505C43.1236 25.0931 43.1057 27.9051 43.0878 33.4932C40.2384 33.7261 38.8227 33.8514 35.9913 34.1022C36.0271 20.5797 36.045 13.8274 36.0809 0.322754C38.9302 0.322754 40.3459 0.322754 43.1953 0.322754C51.6895 0.322754 55.2915 3.52876 55.2736 9.63628C55.2736 12.8423 54.0013 15.7796 51.3132 17.105C53.1053 23.3558 54.0192 26.4544 55.8112 32.6156C52.9619 32.7768 51.5462 32.8664 48.6968 33.0634L48.6789 33.0813ZM43.1236 14.9916C44.1092 14.9557 45.4353 14.8125 46.4926 14.1498C47.5499 13.4871 48.4101 12.2691 48.4101 9.94076C48.4101 7.61238 47.5679 6.37655 46.5105 5.76759C45.4532 5.15862 44.1451 5.1228 43.1594 5.14071L43.1236 14.9736V14.9916Z" fill="white"/>
<path d="M66.9936 32.096C69.9325 19.272 71.4199 12.9317 74.3589 0.304688C77.8354 0.304688 79.5737 0.304688 83.0324 0.304688C85.9534 12.8959 87.4049 19.1646 90.3439 31.7737C87.5662 31.7557 86.1863 31.7557 83.4266 31.7737C82.9069 29.2124 82.6381 27.9229 82.1184 25.3616C79.3766 25.3616 77.9967 25.3975 75.2549 25.4333C74.7173 28.0124 74.4485 29.3199 73.9288 31.899C71.1511 31.9707 69.7713 32.0065 67.0115 32.096H66.9936ZM79.0719 10.5317C78.9823 10.2093 78.9465 10.0481 78.8748 9.72567C78.7135 9.72567 78.6419 9.72567 78.4806 9.72567C78.4089 10.0481 78.3551 10.2093 78.2834 10.5317C77.4591 14.5078 77.0469 16.5138 76.2226 20.5079C78.1759 20.49 79.1436 20.472 81.097 20.472C80.2726 16.4959 79.8784 14.5078 79.054 10.5496L79.0719 10.5317Z" fill="white"/>
<path d="M100.899 26.9557C105.343 18.2332 107.565 13.863 111.992 4.97936C108.175 4.94353 106.275 4.94354 102.458 4.92563C102.458 3.08083 102.458 2.14948 102.458 0.304688C109.339 0.304688 112.798 0.304688 119.679 0.304688C119.679 2.20321 119.679 3.13457 119.679 5.03309C115.181 14.2033 112.923 18.6631 108.408 27.5647C112.941 27.7259 115.199 27.8154 119.733 28.0662C119.733 29.9647 119.733 30.896 119.733 32.7946C112.189 32.3289 108.425 32.1677 100.881 31.9528C100.881 29.9468 100.881 28.9617 100.881 26.9557H100.899Z" fill="white"/>
<path d="M132.17 0.322595C135.019 0.322595 136.435 0.322595 139.266 0.322595C139.302 13.9347 139.32 20.7407 139.356 34.3528C136.507 34.0662 135.091 33.9408 132.26 33.6901C132.224 20.3288 132.206 13.666 132.152 0.304688L132.17 0.322595Z" fill="white"/>
<path d="M153.746 0.340662C160.251 0.340662 163.495 0.340665 170 0.358576V6.08998C166.344 6.00042 164.516 5.9646 160.861 5.87505C160.861 9.70792 160.861 11.6423 160.861 15.4751C163.477 15.6363 164.803 15.708 167.419 15.8692C167.419 18.2692 167.419 19.4871 167.419 21.8871C164.803 21.6543 163.477 21.5468 160.861 21.3319C160.861 25.3439 160.861 27.3678 160.861 31.3798C164.516 31.8096 166.326 32.0425 169.964 32.5261V38.2575C163.495 37.2545 160.269 36.7888 153.782 35.9649C153.746 21.708 153.746 14.5796 153.71 0.322754L153.746 0.340662Z" fill="white"/>
</svg>
